PathFileType	4	(X/Y/Z)	Kaydara	
DataRate	CameraRate	NumFrames	NumMarkers	Units	OrigDataRate	OrigDataStartFrame	OrigNumFrames	
60.00	60.00	4	74	mm	60.00	1493	181	
Frame#	Time	Z_lasi			Z_rasi			Z_rpsi			Z_lpsi			Z_fneck			Z_bneck			Z_fhead			Z_rhead			Z_lhead			Z_rshld			Z_relbtop			Z_relbext			Z_relblow			Z_rwrext			Z_rwrtop			Z_rwrlow			Z_lshld			Z_lelbext			Z_lelblow			Z_lelbtop			Z_lwrext			Z_lwrtop			Z_lwrlow			Z_rtopleg			Z_ltopleg			Z_rkneefr			Z_rkneebk			Z_rkneeis			Z_lkneefr			Z_lknssbk			Z_lkneeis			Z_rankfr			Z_rankis			Z_rankbk			Z_lankfr			Z_lankbk			Z_lankis			A_lasi			A_rasi			A_rpsi			A_lpsi			A_fneck			A_bneck			A_fhead			A_rhead			A_lhead			A_rshld			A_relbtop			A_relbext			A_relblow			A_rwrext			A_rwrtop			A_rwrlow			A_lshld			A_lelbext			A_lelblow			A_lelbtop			A_lwrext			A_lwrtop			A_lwrlow			A_rtopleg			A_ltopleg			A_rkneefr			A_rkneebk			A_rkneeis			A_lkneefr			A_lknssbk			A_lkneeis			A_rankfr			A_rankis			A_rankbk			A_lankfr			A_lankbk			A_lankis			
		X1	Y1	Z1	X2	Y2	Z2	X3	Y3	Z3	X4	Y4	Z4	X5	Y5	Z5	X6	Y6	Z6	X7	Y7	Z7	X8	Y8	Z8	X9	Y9	Z9	X10	Y10	Z10	X11	Y11	Z11	X12	Y12	Z12	X13	Y13	Z13	X14	Y14	Z14	X15	Y15	Z15	X16	Y16	Z16	X17	Y17	Z17	X18	Y18	Z18	X19	Y19	Z19	X20	Y20	Z20	X21	Y21	Z21	X22	Y22	Z22	X23	Y23	Z23	X24	Y24	Z24	X25	Y25	Z25	X26	Y26	Z26	X27	Y27	Z27	X28	Y28	Z28	X29	Y29	Z29	X30	Y30	Z30	X31	Y31	Z31	X32	Y32	Z32	X33	Y33	Z33	X34	Y34	Z34	X35	Y35	Z35	X36	Y36	Z36	X37	Y37	Z37	X38	Y38	Z38	X39	Y39	Z39	X40	Y40	Z40	X41	Y41	Z41	X42	Y42	Z42	X43	Y43	Z43	X44	Y44	Z44	X45	Y45	Z45	X46	Y46	Z46	X47	Y47	Z47	X48	Y48	Z48	X49	Y49	Z49	X50	Y50	Z50	X51	Y51	Z51	X52	Y52	Z52	X53	Y53	Z53	X54	Y54	Z54	X55	Y55	Z55	X56	Y56	Z56	X57	Y57	Z57	X58	Y58	Z58	X59	Y59	Z59	X60	Y60	Z60	X61	Y61	Z61	X62	Y62	Z62	X63	Y63	Z63	X64	Y64	Z64	X65	Y65	Z65	X66	Y66	Z66	X67	Y67	Z67	X68	Y68	Z68	X69	Y69	Z69	X70	Y70	Z70	X71	Y71	Z71	X72	Y72	Z72	X73	Y73	Z73	X74	Y74	Z74	

23	24.867	-245.15921	1058.66905	764.74426	-276.34247	1078.55125	559.51782	-93.69006	1111.91101	496.88652	-52.06877	1091.46278	738.55278	-228.20454	1449.86374	652.14645	-122.81278	1498.84262	702.89932	-209.11846	1666.71570	559.52477	-75.79739	1620.50735	650.87257	-200.34193	1644.64081	728.45383	-143.51726	1436.81549	472.80354	-99.38780	1120.02213	383.01971	-85.00690	1099.56787	439.29779	-171.82512	1129.77905	408.56281	-198.43191	894.65286	357.54967	-236.21264	907.43538	380.26009	-220.61352	899.73572	420.17807	-155.65082	1425.65353	870.07576	-132.42137	1111.43753	871.44592	-208.78277	1129.45801	921.67503	-143.41370	1121.71898	940.74348	-298.40588	885.42160	881.51230	-295.56767	874.33632	927.30133	-248.88844	864.38828	927.34215	-138.22426	920.46707	436.33289	-153.73957	881.44241	800.62210	-258.16833	423.17726	432.96890	-184.56448	455.85304	390.45456	-199.43899	426.63738	512.51762	-199.80330	437.76081	714.74762	-94.15627	462.87991	713.60153	-182.26423	441.44737	623.31768	-208.72108	184.86052	391.03077	-188.40847	174.75012	453.78937	-132.09681	179.49633	387.24968	-135.60475	154.50356	683.70514	-76.46883	162.93056	631.67530	-152.90667	172.24926	614.50981	-957.49130	1030.73631	487.16469	-948.23708	1036.81885	646.70258	-1109.73190	1037.49344	661.25320	-1080.93102	1042.20352	480.17693	-1024.77646	1380.62073	577.81715	-1161.93275	1411.80389	567.69104	-962.55486	1584.98871	590.21629	-1112.25769	1559.48730	671.12785	-1109.30565	1564.58405	507.69489	-1112.73071	1346.00159	752.88071	-1094.60266	1053.40134	784.82590	-1152.92725	1045.82420	756.64047	-1085.33005	1042.94754	728.91129	-1070.94704	807.28783	809.84993	-1027.30553	817.80411	802.50351	-1029.67674	817.27257	764.31641	-1059.46167	1354.18427	398.25073	-1087.01492	1044.10690	374.65218	-1020.00916	1051.76796	401.95965	-1042.57530	1050.61241	352.59178	-1001.79733	822.39075	388.97354	-1000.67932	826.04813	346.33797	-958.18481	834.16100	361.69479	-1060.19127	875.39505	742.00165	-1015.41245	890.23888	405.40688	-1022.57355	450.63717	654.52408	-1131.45790	487.94823	694.81125	-1105.95276	486.67076	577.41070	-1002.33864	462.28264	515.93403	-1086.22635	481.34529	419.96838	-1110.01297	479.43657	544.57165	-1100.42557	166.59428	674.67514	-1130.10887	163.94066	607.40559	-1181.61636	155.90009	674.27452	-1064.23805	166.41569	458.94638	-1125.09781	170.18879	423.34297	-1123.91861	173.87503	513.23120 
24	24.883	-245.58790	1058.34564	764.02077	-276.20750	1078.50716	558.80856	-93.65030	1112.25845	496.39805	-52.04236	1091.61018	738.01926	-229.00555	1449.72504	651.62910	-123.65861	1498.58047	703.18916	-208.75700	1667.97485	561.29738	-76.42432	1620.45090	653.52654	-201.92537	1643.58505	729.92973	-144.07900	1437.01294	472.70557	-99.78368	1120.18318	383.23074	-84.95550	1099.74335	440.03242	-172.28575	1129.87015	408.60912	-198.12191	894.62494	357.28741	-236.01938	907.30835	379.92794	-220.46257	899.60434	419.86954	-156.76802	1425.23911	869.92172	-132.36564	1110.68726	870.24086	-208.65656	1128.54622	920.19226	-143.42844	1121.13075	939.81590	-296.06573	884.12445	877.68532	-293.95775	872.97333	923.59749	-247.34894	863.30826	924.01070	-137.71350	920.60638	435.47405	-153.83518	881.34842	799.95728	-258.03366	423.30101	432.34337	-184.28185	455.88360	389.80354	-199.30649	426.80103	511.97166	-200.25768	437.76489	714.40109	-94.63461	462.86537	713.20038	-182.71433	441.35315	622.89566	-208.61975	184.90126	390.84869	-188.36504	174.91695	453.57098	-131.98118	179.52387	387.05875	-135.79712	154.48742	683.51692	-76.68128	162.94130	631.58722	-153.18014	172.13953	614.24831	-957.39639	1030.77904	487.21550	-948.18779	1036.82816	646.73622	-1109.62723	1037.56035	661.29433	-1080.83710	1042.23816	480.22369	-1024.43581	1380.73624	577.72182	-1161.68083	1411.51657	567.83192	-962.45941	1585.21393	590.14648	-1111.79840	1559.24286	671.26358	-1109.19121	1564.47922	507.83222	-1112.29431	1346.13266	752.92252	-1094.37874	1053.51479	784.94179	-1152.68417	1046.01189	756.87492	-1085.23521	1042.96440	728.83728	-1070.86037	807.36427	809.99802	-1027.24037	817.87766	802.60254	-1029.60083	817.34764	764.44000	-1059.35280	1354.17892	398.23898	-1087.00829	1044.08669	374.64367	-1019.98001	1051.77231	401.89072	-1042.60262	1050.55511	352.46861	-1001.64429	822.39975	389.01653	-1000.62340	826.02158	346.39652	-958.09288	834.17313	361.65329	-1060.08942	875.41672	742.27188	-1015.16991	890.26169	405.41744	-1022.45216	450.64236	654.60945	-1131.34415	487.96963	694.82628	-1105.81215	486.66779	577.45396	-1001.91429	462.20818	516.09829	-1085.91339	481.32343	420.24220	-1109.64813	479.41616	544.69120	-1100.38414	166.64753	674.73778	-1130.04227	163.98558	607.49157	-1181.59721	155.95433	674.30954	-1064.12971	166.40228	459.00295	-1125.00351	170.23531	423.40435	-1123.84171	173.88618	513.33588 
25	24.900	-245.92352	1058.15300	763.22205	-276.01290	1078.52226	557.99328	-93.49731	1112.53296	495.92911	-52.39086	1091.68747	737.63596	-229.71651	1449.56451	651.14326	-124.72763	1498.26950	703.57803	-208.95309	1669.41223	563.59234	-77.31797	1620.47333	656.14227	-203.51044	1642.46826	731.97861	-144.55478	1437.18796	472.58312	-100.10152	1120.29747	383.45356	-85.52897	1099.98993	439.92294	-172.58987	1129.88464	408.58528	-197.93943	894.65637	357.08244	-235.91293	907.19337	379.65034	-220.40451	899.44969	419.59633	-158.23096	1424.97147	869.87366	-132.19117	1109.95438	868.92159	-208.44904	1127.55402	918.61305	-143.28703	1120.65704	938.75671	-293.45301	882.58705	874.17450	-292.01046	871.41655	920.15175	-245.33255	861.83174	921.12144	-137.27192	920.73257	434.68414	-153.90086	881.32866	799.29970	-257.90232	423.38020	431.77113	-184.08152	455.82802	389.39465	-199.29661	426.95438	511.54068	-200.91135	437.69360	713.92006	-95.10767	462.83123	712.70462	-183.14764	441.25023	622.49523	-208.51593	184.93811	390.65475	-188.30460	175.03036	453.39016	-131.87692	179.50531	386.92440	-135.94661	154.47248	683.31375	-76.90167	162.95095	631.47129	-153.39434	172.06814	613.99933	-957.31079	1030.75272	487.22347	-948.07869	1036.81770	646.70517	-1109.43451	1037.61230	661.32507	-1080.70717	1042.27592	480.26291	-1024.09729	1380.87280	577.61841	-1161.34773	1411.20407	567.85885	-962.15210	1585.65567	589.95602	-1111.43883	1558.96027	671.35811	-1109.12636	1564.41757	507.95509	-1111.87874	1346.23215	752.98378	-1094.18419	1053.63876	785.15701	-1152.35863	1046.15021	757.12700	-1084.89212	1042.94075	729.10469	-1070.76889	807.47658	810.18898	-1027.14699	817.90611	802.72316	-1029.50836	817.41798	764.59579	-1059.22264	1354.14948	398.18493	-1086.96198	1044.04701	374.58172	-1019.91974	1051.73668	401.85089	-1042.54150	1050.62004	352.53174	-1001.58150	822.41600	389.05041	-1000.57877	825.99792	346.41277	-958.01712	834.15359	361.55827	-1059.95636	875.46753	742.41432	-1015.06592	890.30205	405.43526	-1022.37724	450.68951	654.68559	-1131.28151	487.99290	694.87686	-1105.76027	486.69643	577.48741	-1001.62376	462.31964	516.11706	-1085.76042	481.35548	420.28675	-1109.58946	479.43943	544.83097	-1100.35034	166.66327	674.75090	-1129.99596	164.00187	607.53456	-1181.57249	155.99274	674.35211	-1064.10255	166.38588	459.07631	-1124.94957	170.26546	423.44707	-1123.77617	173.89654	513.38890 
26	24.917	-246.26980	1057.94495	762.36351	-275.75428	1078.49533	557.07592	-93.16545	1112.69264	495.38109	-52.71960	1091.76712	737.21085	-230.68914	1449.41925	650.70778	-125.71376	1497.94235	703.85330	-209.57239	1670.79849	566.03931	-78.48807	1620.36453	658.35190	-205.02260	1641.08795	734.03328	-144.90492	1437.40875	472.42226	-100.36931	1120.48660	383.61023	-85.89365	1100.20370	440.23323	-172.90325	1130.01610	408.51582	-197.85931	894.77119	356.83418	-235.89251	907.18956	379.43279	-220.16094	899.27826	419.19224	-159.40257	1424.43863	869.71901	-132.05673	1109.14940	867.63779	-208.30746	1126.57204	917.15988	-143.15971	1120.02892	937.64236	-290.78079	881.00723	871.39725	-289.96881	869.66927	916.95328	-243.55618	860.85983	918.47504	-136.59433	920.83847	434.51908	-154.29217	881.38405	798.32993	-257.85770	423.44376	431.25832	-183.92662	455.83321	388.90926	-199.36562	427.10400	511.01345	-201.58009	437.56889	713.58589	-95.98103	462.64271	712.70126	-183.75797	441.13998	622.11769	-208.43851	184.97898	390.44529	-188.21495	175.11845	453.24497	-131.76134	179.50745	386.78391	-136.29951	154.50773	683.22052	-76.97131	162.99349	631.28609	-153.56331	171.97849	613.79143	-957.19620	1030.72617	487.22908	-947.94754	1036.79565	646.64314	-1109.31168	1037.74071	661.42563	-1080.56763	1042.28470	480.30228	-1023.69148	1381.02951	577.51503	-1161.06117	1410.97824	567.84687	-962.07657	1586.20377	590.10784	-1111.28174	1558.72223	671.46286	-1109.09790	1564.37561	508.05779	-1111.42197	1346.35284	753.01056	-1093.83408	1053.78220	785.28366	-1152.13638	1046.32446	757.27577	-1083.42575	1042.90123	729.79950	-1070.64041	807.56607	810.36034	-1027.04933	817.97073	802.82265	-1029.39529	817.49496	764.73122	-1059.00352	1354.11423	398.09288	-1086.88522	1044.00192	374.53178	-1019.85687	1051.68015	401.80248	-1042.49733	1050.56931	352.48512	-1001.51077	822.37694	389.03614	-1000.52841	825.93384	346.45210	-957.94136	834.12384	361.52260	-1059.87289	875.45090	742.45171	-1014.96414	890.31982	405.47306	-1022.33917	450.68718	654.77798	-1131.21788	488.00026	694.89441	-1105.69069	486.68839	577.52251	-1001.67427	462.28157	516.23619	-1085.69351	481.36314	420.31734	-1109.52988	479.43920	544.83681	-1100.29991	166.67345	674.77577	-1129.96605	164.03561	607.57545	-1181.54785	156.02778	674.36798	-1064.09409	166.37840	459.08669	-1124.95071	170.28633	423.44063	-1123.73840	173.88996	513.38783 
